<?xml version="1.0" standalone="no"?>
<!DOCTYPE svg PUBLIC "-//W3C//DTD SVG 20010904//EN"
 "http://www.w3.org/TR/2001/REC-SVG-20010904/DTD/svg10.dtd">
<svg version="1.0" xmlns="http://www.w3.org/2000/svg"
 width="300.000000pt" height="300.000000pt" viewBox="0 0 300.000000 300.000000"
 preserveAspectRatio="xMidYMid meet">
<metadata>
Created by potrace 1.10, written by Peter Selinger 2001-2011
</metadata>
<g transform="translate(0.000000,300.000000) scale(0.100000,-0.100000)"
fill="#000000" stroke="none">
<path d="M547 2319 c-58 -14 -91 -34 -134 -83 -41 -47 -64 -103 -62 -152 1
-19 4 -13 10 20 9 54 53 133 84 150 11 6 22 14 25 18 12 15 124 40 156 34 29
-6 330 -157 449 -226 22 -13 36 -19 30 -13 -5 6 -107 65 -225 131 -223 125
-261 139 -333 121z"/>
<path d="M831 2184 c6 -11 63 -53 125 -94 62 -41 114 -78 114 -82 0 -5 7 -8
15 -8 8 0 15 -4 15 -10 0 -5 5 -10 10 -10 6 0 32 -15 58 -33 80 -55 132 -88
132 -82 0 2 -48 37 -107 77 -60 39 -162 110 -228 158 -150 107 -150 107 -134
84z"/>
<path d="M1140 2046 c0 -3 9 -10 20 -16 11 -6 20 -8 20 -6 0 3 -9 10 -20 16
-11 6 -20 8 -20 6z"/>
<path d="M364 2005 c4 -16 15 -43 24 -59 17 -28 693 -536 714 -536 12 0 -70
66 -192 154 -52 38 -99 75 -103 83 -5 7 -13 10 -19 7 -6 -4 -8 -3 -5 3 6 9
-66 67 -83 68 -10 0 -76 49 -112 83 -20 19 -41 31 -47 27 -6 -3 -10 -2 -9 3 2
5 -25 28 -58 51 -63 42 -92 75 -97 110 -2 11 -7 24 -11 28 -5 5 -6 -5 -2 -22z
m397 -332 c13 -16 12 -17 -3 -4 -17 13 -22 21 -14 21 2 0 10 -8 17 -17z"/>
<path d="M490 2027 c0 -2 18 -17 40 -32 24 -17 39 -34 36 -42 -3 -7 -1 -13 4
-13 24 0 6 37 -28 60 -42 28 -52 34 -52 27z"/>
<path d="M1190 2016 c0 -3 14 -12 30 -21 17 -9 30 -13 30 -11 0 3 -13 12 -30
21 -16 9 -30 13 -30 11z"/>
<path d="M1265 1973 c6 -6 37 -26 70 -44 33 -18 56 -28 50 -22 -5 5 -37 25
-70 43 -33 18 -55 28 -50 23z"/>
<path d="M1405 1893 c6 -6 33 -23 60 -38 28 -16 46 -24 40 -18 -5 6 -32 23
-60 38 -27 16 -45 24 -40 18z"/>
<path d="M685 1880 c-4 -6 -2 -9 3 -8 16 4 91 -44 96 -62 3 -12 4 -12 5 2 0
10 -18 30 -43 48 -50 33 -52 34 -61 20z"/>
<path d="M1310 1852 c0 -6 9 -12 20 -15 11 -3 20 -3 20 -1 0 2 -9 8 -20 14
-11 6 -20 7 -20 2z"/>
<path d="M1360 1826 c0 -2 8 -10 18 -17 15 -13 16 -12 3 4 -13 16 -21 21 -21
13z"/>
<path d="M1525 1823 c6 -5 37 -25 70 -43 33 -18 56 -28 50 -23 -5 6 -37 26
-70 44 -33 18 -55 28 -50 22z"/>
<path d="M1864 1786 c-41 -18 -104 -82 -104 -106 0 -27 11 -51 21 -44 5 2 3
14 -3 24 -16 25 12 66 68 97 52 30 93 32 47 2 -43 -27 -42 -33 2 -12 19 9 35
22 35 29 0 7 12 15 28 17 17 2 11 4 -18 5 -25 1 -59 -5 -76 -12z"/>
<path d="M1450 1763 c0 -5 18 -18 40 -31 52 -29 52 -22 0 12 -22 14 -40 23
-40 19z"/>
<path d="M1999 1741 c20 -15 25 -30 29 -79 8 -107 -58 -213 -165 -267 -40 -20
-57 -24 -72 -16 -18 10 -31 6 -31 -11 0 -19 78 -6 126 22 92 52 156 159 158
261 1 48 -3 62 -23 83 -14 14 -29 26 -35 26 -6 0 0 -9 13 -19z"/>
<path d="M1563 1710 c-50 -22 -134 -98 -164 -147 -19 -31 -26 -34 -53 -29
l-31 5 26 -14 c14 -8 34 -26 43 -40 21 -31 28 -31 43 1 10 22 10 24 -3 13 -13
-10 -17 -10 -25 2 -14 22 -11 34 21 75 53 68 151 140 176 130 10 -4 12 -2 8 6
-5 7 1 9 19 6 14 -3 32 -1 39 3 27 18 -58 8 -99 -11z"/>
<path d="M1701 1705 c32 -17 44 -44 28 -59 -9 -8 -10 -6 -6 7 5 14 -1 21 -28
33 -46 19 -50 18 -52 -14 -2 -25 2 -29 45 -39 56 -13 62 -10 62 27 0 23 -7 33
-30 45 -37 19 -54 19 -19 0z"/>
<path d="M1804 1678 l-19 -23 23 19 c21 18 27 26 19 26 -2 0 -12 -10 -23 -22z"/>
<path d="M1548 1648 c9 -9 15 -9 24 0 9 9 7 12 -12 12 -19 0 -21 -3 -12 -12z"/>
<path d="M1855 1604 c-30 -33 -31 -53 -5 -82 26 -28 31 -28 62 6 30 32 39 63
26 86 -12 21 -42 22 -34 0 7 -18 -33 -96 -46 -88 -14 9 -9 45 13 75 26 36 16
38 -16 3z"/>
<path d="M1090 1522 c0 -60 18 -101 38 -88 7 4 12 30 12 59 -1 44 -5 55 -25
70 l-25 18 0 -59z m22 -24 c3 -26 2 -45 -3 -42 -5 3 -9 26 -9 51 0 58 6 53 12
-9z"/>
<path d="M1156 1519 c7 -8 14 -23 17 -34 4 -13 5 -9 4 9 -1 16 -9 32 -17 34
-12 4 -13 2 -4 -9z"/>
<path d="M1218 1504 c-38 -20 -36 -28 2 -9 17 9 30 18 30 20 0 7 -1 6 -32 -11z"/>
<path d="M1295 1491 c-3 -5 -19 -12 -35 -16 -17 -4 -30 -10 -30 -14 0 -4 22 0
49 8 27 9 47 19 44 24 -6 10 -21 9 -28 -2z"/>
<path d="M1637 1462 c-22 -24 -22 -44 -1 -40 24 4 41 35 28 48 -7 7 -16 5 -27
-8z"/>
<path d="M2050 1453 c-25 -8 -64 -28 -86 -44 -47 -32 -112 -108 -90 -105 21 3
47 27 40 37 -8 14 45 58 104 85 57 26 116 31 156 13 33 -15 23 -31 -11 -18
-18 7 -43 6 -79 -1 -97 -20 -228 -166 -269 -300 -9 -30 -21 -65 -26 -77 -7
-19 -5 -23 12 -23 21 0 114 -74 114 -90 0 -5 4 -12 9 -17 5 -5 6 -3 2 5 -10
18 2 15 35 -9 16 -11 27 -24 24 -29 -3 -5 0 -12 6 -16 8 -4 9 -3 5 4 -12 19 3
14 50 -18 24 -17 44 -27 45 -23 1 4 5 -3 9 -17 7 -21 8 -22 9 -5 1 15 -36 46
-140 120 -150 106 -168 122 -153 133 5 4 20 38 32 76 35 104 137 236 181 236
14 0 291 -173 291 -181 0 -4 -16 -17 -35 -30 -19 -13 -35 -28 -35 -33 0 -4
-13 -25 -28 -45 -16 -20 -32 -43 -36 -51 -4 -8 3 -1 16 15 71 93 136 147 196
165 24 7 25 8 4 9 -12 1 -31 -4 -41 -11 -17 -10 -39 0 -167 78 -143 87 -188
125 -130 110 15 -4 26 -2 26 4 0 18 55 11 106 -14 27 -13 50 -23 52 -21 10 9
-33 69 -61 85 -38 24 -76 25 -137 3z m-140 -117 c0 -2 -8 -10 -17 -17 -16 -13
-17 -12 -4 4 13 16 21 21 21 13z"/>
<path d="M1092 1388 c-16 -22 -54 -100 -49 -104 2 -3 10 9 17 26 7 16 17 27
23 23 6 -3 7 -1 3 5 -4 6 1 23 10 37 17 26 14 35 -4 13z"/>
<path d="M1726 1345 c-30 -46 -110 -116 -160 -141 -58 -28 -93 -30 -124 -8
-12 8 -27 12 -32 9 -39 -24 49 -51 111 -35 76 21 169 90 211 158 24 39 18 54
-6 17z"/>
<path d="M1257 1319 c-14 -8 -16 -14 -6 -25 17 -21 39 -17 39 7 0 11 5 17 10
14 21 -13 9 -44 -22 -59 -38 -19 -55 -20 -61 -3 -3 6 -6 3 -6 -8 -2 -45 41
-58 80 -25 21 17 21 19 4 13 -18 -6 -18 -5 -6 10 7 9 17 14 22 11 11 -6 23 41
15 61 -6 17 -43 19 -69 4z"/>
<path d="M1840 1243 c-44 -69 -72 -149 -77 -224 -9 -110 34 -169 124 -169 31
-1 56 -14 138 -74 93 -69 116 -82 101 -57 -10 15 -186 136 -229 156 -36 17
-67 50 -80 88 -4 9 -2 17 5 17 7 0 6 5 -2 15 -38 46 -33 -16 6 -77 29 -46 30
-52 3 -38 -26 14 -59 85 -58 125 0 34 21 120 32 131 4 4 7 15 7 24 0 9 15 42
34 73 42 69 38 76 -4 10z"/>
<path d="M2270 1276 c0 -3 9 -10 20 -16 11 -6 20 -8 20 -6 0 3 -9 10 -20 16
-11 6 -20 8 -20 6z"/>
<path d="M1091 1244 c0 -11 3 -14 6 -6 3 7 2 16 -1 19 -3 4 -6 -2 -5 -13z"/>
<path d="M2320 1246 c0 -3 9 -10 20 -16 11 -6 20 -8 20 -6 0 3 -9 10 -20 16
-11 6 -20 8 -20 6z"/>
<path d="M1022 1200 c0 -14 2 -19 5 -12 2 6 2 18 0 25 -3 6 -5 1 -5 -13z"/>
<path d="M2475 1208 c11 -6 26 -18 33 -26 6 -9 12 -11 12 -4 0 12 -39 42 -55
42 -5 0 -1 -6 10 -12z"/>
<path d="M1354 1157 c-11 -13 -32 -32 -49 -42 -16 -10 -36 -26 -43 -34 -9 -12
-31 -16 -82 -16 -59 0 -72 4 -94 24 -31 29 -32 38 -8 43 10 3 5 6 -14 9 l-32
5 15 -32 c28 -57 137 -85 198 -52 74 42 145 102 133 114 -3 3 -14 -6 -24 -19z"/>
<path d="M2366 1159 c-103 -55 -207 -217 -214 -334 -4 -54 -1 -66 17 -84 89
-89 317 135 329 323 3 51 0 65 -18 89 -26 33 -59 35 -114 6z m103 -40 c13 -23
13 -34 -2 -93 -26 -107 -116 -226 -201 -266 -66 -31 -99 -2 -88 80 5 41 61
170 73 170 5 0 9 6 9 13 0 12 50 63 104 105 40 30 85 26 105 -9z"/>
<path d="M2188 683 c6 -2 18 -2 25 0 6 3 1 5 -13 5 -14 0 -19 -2 -12 -5z"/>
</g>
</svg>
