<svg width="400" height="400" xmlns="http://www.w3.org/2000/svg">
 <!-- Created with Method Draw - http://github.com/duopixel/Method-Draw/ -->
 <g>
  <title>background</title>
  <rect fill="none" id="canvas_background" height="402" width="402" y="-1" x="-1"/>
  <g display="none" overflow="visible" y="0" x="0" height="100%" width="100%" id="canvasGrid">
   <rect fill="url(#gridpattern)" stroke-width="0" y="0" x="0" height="100%" width="100%"/>
  </g>
 </g>
 <g>
  <title>Layer 1</title>
  <path id="svg_2" d="m82.498611,145.797699l32.458008,-9.574005l30.820007,-10.492004l28.523987,-12.786987c0.001007,0.06601 20.32901,-10.753998 20.657013,-10.753998c0.328003,0 7.868988,-2.950989 7.867981,-3.015991c0.001007,0.065002 7.21402,1.048981 7.213013,0.982971c0.001007,0.06601 6.230011,4 6.229004,3.934998c0.001007,0.065002 14.098999,5.311005 13.772003,5.311005c-0.328003,0 51.803055,-21.639099 51.802078,-21.704681c0.000977,0.065582 29.180969,-5.508209 29.179932,-5.5737c0.001038,0.065491 13.116028,1.049103 13.11499,0.983582c0.001038,0.065521 14.427002,3.672119 14.426025,3.606506c0.000977,0.065613 13.115967,8.59021 13.442993,8.59021c0.328003,0 13.442993,12.787079 13.442017,12.7211c0.000977,0.065979 7.213989,20.065979 7.213013,20c0.000977,0.065979 -3.278015,17.770996 -3.278015,17.704987c0,0.06601 -7.540955,14.492004 -7.540955,14.425995c0,0.06601 -9.180054,9.574005 -9.180054,9.507996c0,0.06601 -4.917969,32.525024 -4.917969,32.459015c0,0.06601 -21.311035,20.394012 -21.312012,20.328003c0.000977,0.06601 -2.294006,-20.589996 -1.966003,-20.589996c0.326965,0 -2.295959,-3.606995 -2.295959,-3.671997c0,0.065002 -5.901001,-2.558014 -5.902039,-2.622986c0.001038,0.064972 -4.58905,-8.787018 -4.590027,-8.853027c0.000977,0.06601 -9.179993,-5.835999 -9.179993,-5.901001c0,0.065002 -9.835999,2.359985 -9.835999,2.295013c0,0.064972 -3.605957,5.96701 -3.606995,5.902008c0.001038,0.065002 -6.557007,-0.263 -6.557007,-0.328003c0,0.065002 34.09906,-27.14801 34.098022,-27.213013c0.001038,0.065002 27.213989,0.721008 27.212952,0.654999" stroke-width="6" stroke="#000" fill="none"/>
  <path id="svg_3" d="m343.809662,161.534698l12.458008,-18.098022l4.262024,-18.360962l-10.164063,-15.082031l-15.736938,-12.130981l-20.984009,-5.573486l-23.606018,5.573486l-22.950989,7.540985l-17.37706,9.181l-7.868958,4.590027l10.16394,5.245972l10.820053,6.88501l5.246033,10.819l-1.312012,7.868988l-5.573975,7.541016l-45.901077,15.410004l-59.016022,22.623016l-20.655975,9.179993l6.884979,-4.262024l-1.310974,-13.442993l-3.278992,-11.147003l-10.820007,-8.196991l-16.721008,-8.523987l-16.393005,-6.886017l-11.14801,-6.229004l-9.179993,4.589996l-1.312012,8.525024l-0.328003,6.556976l-21.966976,13.443024l-15.082001,14.097961c0.001007,0.065002 -10.490997,22.360016 -10.490997,22.03302c0,-0.328003 -0.654999,20.983002 -0.656006,20.917999c0.001007,0.065002 5.246002,18.097992 5.246002,18.032013c0,0.065979 15.082001,18.753998 15.082001,18.688995c0,0.065002 23.278988,9.246033 23.278011,9.179993c0.000977,0.06604 24.591003,2.361023 24.589966,2.295044c0.001038,0.065979 28.197998,0.393982 28.197021,0.328003c0.000977,0.065979 19.673004,-5.83606 19.671997,-5.902039c0.001007,0.065979 3.606995,4.656006 3.606995,4.591003c0,0.065002 27.869019,6.622986 27.869019,6.294983c0,-0.328003 25.246002,-8.852966 25.244995,-8.917969c0.001007,0.065002 12.131989,-6.492004 12.130981,-6.557983c0.001007,0.065979 0.001007,-14.688049 0,-14.754028c0.001007,0.065979 27.542053,-14.03299 27.541016,-14.097992c0.001038,0.065002 -1.309998,-6.492004 -1.309998,-6.492004c0,0 -4.263,-2.295013 -4.263,-2.361023c0,0.06601 -25.246002,12.525024 -25.246002,12.458984c0,0.06604 3.606995,7.935028 3.605988,7.869019c0.001007,0.06601 -5.901001,-10.425995 -5.901001,-10.492004c0,0.06601 20,-9.769989 20,-9.835999c0,0.06601 -0.328003,-8.130981 -0.328003,-8.195984c0,0.065002 8.197021,-5.18103 8.196014,-5.246002c0.001007,0.064972 -1.309998,-2.558014 -1.311005,-2.623016c0.001007,0.065002 -28.195984,11.869019 -28.196991,11.803009" stroke-width="6" stroke="#000" fill="none"/>
  <path id="svg_5" d="m73.318619,164.81369l11.473999,-5.96698l7.212982,2.950989l0.984009,7.213013l-11.474976,5.901001" opacity="0.5" stroke-width="6" stroke="#000" fill="none"/>
  <path id="svg_6" d="m0.678871,199.45462" opacity="0.5" stroke-width="1.5" stroke="#000" fill="none"/>
  <path id="svg_7" d="m135.31926,204.81369l-8.524994,0.590027l-24.917999,-11.80304l-19.671997,-10.491974l-4.263,-5.902008l-20.654995,12.458984l-14.098999,15.410034l-6.229004,16.720978l0.983002,17.376984l4.917999,12.459015l15.738007,13.115051l20.984005,6.556946l20.982971,2.95105l24.91803,-3.278015c0.000977,0.065002 11.803986,-3.541016 11.803986,-3.541016c0,0 9.835999,-17.377014 9.835999,-17.443024c0,0.06601 20.328003,-12.721008 20.327026,-12.786987c0.000977,0.065979 23.606995,-12.393005 23.606995,-12.458984c0,0.065979 6.885986,3.016968 6.88501,2.950989c0.000977,0.065979 3.278992,5.310974 3.278992,5.246002c0,0.064972 2.29599,13.835999 2.294983,13.769989" stroke-width="6" stroke="#000" fill="none"/>
  <path id="svg_8" d="m171.350632,235.63269l5.244995,3.21402l-1.311005,7.867981l-5.902008,7.869019l-3.93399,8.524994l4.261993,5.246033l7.541016,1.96698l0.983978,6.557007l-3.606995,6.557983l2.623016,3.934021l32.458984,-12.786987l-0.328003,-15.082031l4.261993,-3.278015l-0.983002,-5.902008l-5.901978,1.639008l26.22998,-12.459015" stroke-width="1.5" stroke="#000" fill="none"/>
  <path id="svg_9" d="m202.170609,236.288696l24.261017,-9.901001l-24.261017,9.901001z" stroke-width="1.5" stroke="#000" fill="none"/>
  <path id="svg_10" d="m140.531601,262.518707l7.212036,9.113983l-2.295013,9.18103l-4.917999,-0.656006l1.96698,-3.606995l0.984009,-5.901001l-3.606995,-4.263" stroke-width="1.5" stroke="#000" fill="none"/>
  <path id="svg_11" d="m280.858673,191.042694l0.655029,20.263l9.835938,5.572998l4.262024,8.525024l5.246033,10.491974l7.868958,-0.983978l5.246033,-3.606018l1.96698,-5.574005l4.91803,-2.295013l4.589966,-0.327972l3.934998,1.96701" stroke-width="6" stroke="#000" fill="none"/>
  <path id="svg_12" d="m116.2686,173.337677l11.80304,-2.687988l6.884979,7.869019l2.623016,12.458984l-7.213013,7.213013l-10.492004,-1.639008l-3.278015,-5.574005c0,0.065002 -2.294983,-5.181 -2.294983,-5.507996c0,-0.328003 5.901978,2.294983 5.901001,2.229004c0.000977,0.065979 3.934998,5.638977 3.93399,5.573975c0.001007,0.065002 8.526001,1.705017 8.524994,1.639038c0.001007,0.065979 1.640015,-5.835999 1.639008,-5.901001c0.001007,0.065002 -2.949982,-6.164001 -2.949982,-6.820007c0,-0.656006 -2.951019,-6.230011 -2.951019,-6.295013c0,0.065002 -3.93399,-1.902008 -3.934998,-1.96701c0.001007,0.065002 -5.572998,1.377014 -5.572998,1.311035" stroke-width="5" stroke="#000" fill="none"/>
  <rect id="svg_13" height="18.68848" width="5.573757" y="193.665992" x="291.350491" stroke-width="6" stroke="#000" fill="none"/>
  <rect id="svg_14" height="12.131119" width="5.573757" y="202.190561" x="310.694708" stroke-width="6" stroke="#000" fill="none"/>
  <rect id="svg_15" height="9.836042" width="8.52457" y="219.239701" x="300.858666" stroke-width="6" stroke="#000" fill="none"/>
 </g>
</svg>